<?xml version="1.0" encoding="UTF-8"?>
<svg id="a" data-name="Layer 1" xmlns="http://www.w3.org/2000/svg" viewBox="0 0 307.48 309">
  <defs>
    <style>
      .b {
        fill: #dfe6ed;
        stroke-width: 0px;
      }
    </style>
  </defs>
  <path class="b" d="m0,129.9c.39-1.45.7-2.94,1.2-4.35,3.13-8.87,10.58-14.21,19.99-14.23,18.63-.04,37.25,0,55.88-.02h8.36v15.68h-.96c-20.75,0-41.51,0-62.26,0-.81,0-1.65.04-2.44.21-2.48.54-4.01,2.38-4.23,5.01-.05.59-.06,1.18-.06,1.77v41.2c0,.69,0,1.39.12,2.07.49,2.85,2.49,4.6,5.38,4.77.43.03.87.02,1.31.02h48.22v-19.62H28.93v-15.74c.26,0,.51-.03.76-.03,16.14,0,32.28,0,48.43,0,3.97,0,7.03,2.37,7.89,6.09.16.69.22,1.42.22,2.13.01,11.56.02,23.11.01,34.67,0,4.34-2.57,7.43-6.67,8.1-.48.08-.97.08-1.45.08-18.76,0-37.51.06-56.27-.03-7.06-.03-13.09-2.64-17.64-8.2-2.19-2.67-3.39-5.82-4.03-9.19-.04-.2-.11-.39-.16-.59C0,163.11,0,146.51,0,129.9Z"/>
  <path class="b" d="m307.48,102.54h-7.77V8.14H7.82v94.4H0V0c.31.01.61.04.92.04h305.64c.31,0,.61-.03.92-.04,0,34.17,0,68.36,0,102.54Z"/>
  <path class="b" d="m0,206.46h7.77v94.4h291.89v-94.4h7.82v102.54c-.31-.01-.61-.04-.92-.04H.92c-.31,0-.61.03-.92.04,0-34.17,0-68.35,0-102.54Z"/>
  <path class="b" d="m307.48,193.09c-.59,1.07-1.01,2.27-1.79,3.18-3.03,3.52-8.37,3.57-11.64.17-5.13-5.34-10.24-10.7-15.36-16.04-13.64-14.25-27.29-28.5-40.93-42.75-.19-.2-.35-.43-.52-.65-.07.03-.14.06-.22.1v60.59h-15.7v-79.26c0-4.02,2.4-7.24,6.09-8.09,2.91-.67,5.43.13,7.49,2.27,3.36,3.48,6.71,6.99,10.06,10.48,15.44,16.11,30.88,32.22,46.31,48.34.19.2.31.45.47.68.08-.05.16-.11.24-.16v-60.63h15.49c.01,27.24.01,54.51.01,81.77Z"/>
  <path class="b" d="m118.23,197.67h-15.64c-.01-.27-.03-.52-.03-.76v-78.71c0-3.85,2.29-6.94,5.77-7.85,3.51-.92,7.03.58,8.9,3.82,4.74,8.23,9.47,16.46,14.21,24.69,6.94,12.07,13.88,24.14,20.82,36.21.14.24.29.48.48.8.21-.35.38-.65.56-.95,11.62-20.18,23.25-40.36,34.85-60.56,1.68-2.92,4.15-4.39,7.5-4.28,3.97.12,7.32,3.53,7.44,7.5,0,.36,0,.72,0,1.08v78.99h-15.74v-51.07c-.06-.02-.11-.04-.17-.06-.13.23-.27.45-.4.68-9.05,15.91-18.13,31.79-27.11,47.74-2.14,3.8-7.06,4.91-10.53,3.15-1.4-.71-2.38-1.8-3.15-3.15-8.28-14.52-16.57-29.03-24.86-43.54-.92-1.61-1.85-3.23-2.92-4.81,0,17.02,0,34.03,0,51.08Z"/>
</svg>