<?xml version="1.0" encoding="utf-8"?>
<!-- Generator: Adobe Illustrator 28.0.0, SVG Export Plug-In . SVG Version: 6.00 Build 0)  -->
<svg version="1.1" id="Layer_1" xmlns="http://www.w3.org/2000/svg" xmlns:xlink="http://www.w3.org/1999/xlink" x="0px" y="0px"
	 viewBox="0 0 350 350" style="enable-background:new 0 0 350 350;" xml:space="preserve">
<style type="text/css">
	.st0{fill:#2D2D2D;}
</style>
<g>
	<path class="st0" d="M21.26,150.4c0.39-1.45,0.7-2.94,1.2-4.35c3.13-8.87,10.58-14.21,19.99-14.23
		c18.63-0.04,37.25-0.01,55.88-0.02c2.77,0,5.53,0,8.36,0c0,5.22,0,10.4,0,15.68c-0.31,0-0.64,0-0.96,0c-20.75,0-41.51,0-62.26,0.01
		c-0.81,0-1.65,0.04-2.44,0.21c-2.48,0.54-4.01,2.38-4.23,5.01c-0.05,0.59-0.06,1.18-0.06,1.77c0,13.73,0,27.47,0,41.2
		c0,0.69,0,1.39,0.12,2.07c0.49,2.85,2.49,4.6,5.38,4.77c0.43,0.03,0.87,0.02,1.31,0.02c15.76,0,31.51,0,47.27,0c0.3,0,0.6,0,0.95,0
		c0-6.57,0-13.06,0-19.62c-13.86,0-27.69,0-41.58,0c0-5.28,0-10.48,0-15.74c0.26-0.01,0.51-0.03,0.76-0.03
		c16.14,0,32.28-0.01,48.43,0c3.97,0,7.03,2.37,7.89,6.09c0.16,0.69,0.22,1.42,0.22,2.13c0.01,11.56,0.02,23.11,0.01,34.67
		c0,4.34-2.57,7.43-6.67,8.1c-0.48,0.08-0.97,0.08-1.45,0.08c-18.76,0-37.51,0.06-56.27-0.03c-7.06-0.03-13.09-2.64-17.64-8.2
		c-2.19-2.67-3.39-5.82-4.03-9.19c-0.04-0.2-0.11-0.39-0.16-0.59C21.26,183.61,21.26,167.01,21.26,150.4z"/>
	<path class="st0" d="M328.74,123.04c-2.56,0-5.12,0-7.77,0c0-31.49,0-62.91,0-94.4c-97.33,0-194.57,0-291.89,0
		c0,31.43,0,62.85,0,94.4c-2.66,0-5.24,0-7.82,0c0-34.18,0-68.36,0-102.54c0.31,0.01,0.61,0.04,0.92,0.04
		c101.88,0,203.76,0,305.64,0c0.31,0,0.61-0.03,0.92-0.04C328.74,54.67,328.74,88.86,328.74,123.04z"/>
	<path class="st0" d="M21.26,226.96c2.56,0,5.12,0,7.77,0c0,31.49,0,62.91,0,94.4c97.33,0,194.57,0,291.89,0c0-31.43,0-62.85,0-94.4
		c2.66,0,5.24,0,7.82,0c0,34.18,0,68.36,0,102.54c-0.31-0.01-0.61-0.04-0.92-0.04c-101.88,0-203.76,0-305.64,0
		c-0.31,0-0.61,0.03-0.92,0.04C21.26,295.33,21.26,261.15,21.26,226.96z"/>
	<path class="st0" d="M328.74,213.59c-0.59,1.07-1.01,2.27-1.79,3.18c-3.03,3.52-8.37,3.57-11.64,0.17
		c-5.13-5.34-10.24-10.7-15.36-16.04c-13.64-14.25-27.29-28.5-40.93-42.75c-0.19-0.2-0.35-0.43-0.52-0.65
		c-0.07,0.03-0.14,0.06-0.22,0.1c0,20.19,0,40.37,0,60.59c-5.28,0-10.45,0-15.7,0c0-0.31,0-0.58,0-0.86c0-26.13,0-52.27,0-78.4
		c0-4.02,2.4-7.24,6.09-8.09c2.91-0.67,5.43,0.13,7.49,2.27c3.36,3.48,6.71,6.99,10.06,10.48c15.44,16.11,30.88,32.22,46.31,48.34
		c0.19,0.2,0.31,0.45,0.47,0.68c0.08-0.05,0.16-0.11,0.24-0.16c0-20.17,0-40.34,0-60.63c5.22,0,10.35,0,15.49,0
		C328.74,159.06,328.74,186.33,328.74,213.59z"/>
	<path class="st0" d="M139.49,218.17c-5.26,0-10.42,0-15.64,0c-0.01-0.27-0.03-0.52-0.03-0.76c0-26.24,0-52.47,0-78.71
		c0-3.85,2.29-6.94,5.77-7.85c3.51-0.92,7.03,0.58,8.9,3.82c4.74,8.23,9.47,16.46,14.21,24.69c6.94,12.07,13.88,24.14,20.82,36.21
		c0.14,0.24,0.29,0.48,0.48,0.8c0.21-0.35,0.38-0.65,0.56-0.95c11.62-20.18,23.25-40.36,34.85-60.56c1.68-2.92,4.15-4.39,7.5-4.28
		c3.97,0.12,7.32,3.53,7.44,7.5c0.01,0.36,0.01,0.72,0.01,1.08c0,26,0,52.01,0,78.01c0,0.31,0,0.61,0,0.98c-5.24,0-10.45,0-15.74,0
		c0-17.03,0-34.05,0-51.07c-0.06-0.02-0.11-0.04-0.17-0.06c-0.13,0.23-0.27,0.45-0.4,0.68c-9.05,15.91-18.13,31.79-27.11,47.74
		c-2.14,3.8-7.06,4.91-10.53,3.15c-1.4-0.71-2.38-1.8-3.15-3.15c-8.28-14.52-16.57-29.03-24.86-43.54
		c-0.92-1.61-1.85-3.23-2.92-4.81C139.49,184.11,139.49,201.12,139.49,218.17z"/>
</g>
</svg>
