<?xml version="1.0" standalone="no"?>
<!DOCTYPE svg PUBLIC "-//W3C//DTD SVG 20010904//EN"
 "http://www.w3.org/TR/2001/REC-SVG-20010904/DTD/svg10.dtd">
<svg version="1.0" xmlns="http://www.w3.org/2000/svg"
 width="618.000000pt" height="618.000000pt" viewBox="0 0 618.000000 618.000000"
 preserveAspectRatio="xMidYMid meet">
<metadata>
Created by potrace 1.14, written by Peter Selinger 2001-2017
</metadata>
<g transform="translate(0.000000,618.000000) scale(0.100000,-0.100000)"
fill="#000000" stroke="none">
<path d="M20 5155 l0 -1025 78 0 78 0 -1 936 c0 515 2 939 5 943 4 6 5788 8
5825 3 7 -1 10 -320 10 -942 l0 -940 77 0 78 0 0 1025 0 1025 -3075 0 -3075 0
0 -1025z"/>
<path d="M2155 3957 c-22 -13 -49 -40 -62 -62 l-22 -40 2 -814 2 -815 140 1
c77 1 147 2 155 2 13 1 15 61 15 501 0 275 3 500 6 500 6 0 44 -61 87 -140 46
-84 77 -137 91 -154 9 -10 15 -21 14 -25 0 -3 23 -47 52 -96 29 -50 62 -108
74 -130 12 -22 26 -47 32 -55 20 -33 189 -332 189 -336 0 -13 66 -74 89 -82
60 -21 142 1 178 47 7 9 32 50 55 91 23 41 47 83 53 92 5 9 17 29 26 45 8 15
66 118 129 228 62 110 124 221 138 248 14 26 30 47 34 47 4 0 8 6 8 13 0 13
82 159 113 202 12 17 14 -43 15 -460 0 -264 1 -493 1 -510 l1 -30 148 1 c82 1
153 3 158 7 5 3 9 344 8 814 -1 878 2 837 -56 890 -32 30 -65 41 -116 38 -83
-5 -108 -37 -303 -384 -14 -25 -45 -78 -67 -118 -23 -39 -50 -87 -61 -105 -10
-18 -42 -73 -70 -121 -28 -49 -51 -93 -51 -98 0 -5 -4 -9 -10 -9 -5 0 -10 -4
-10 -10 0 -7 -53 -105 -110 -200 -5 -8 -42 -72 -82 -141 l-72 -126 -44 76
c-58 101 -155 267 -181 311 -12 19 -24 42 -28 50 -4 8 -28 51 -54 95 -42 72
-171 297 -222 385 -11 19 -31 55 -45 80 -13 25 -31 53 -40 63 -8 9 -11 17 -7
17 4 0 1 8 -7 18 -8 9 -30 44 -47 77 -34 63 -73 110 -105 127 -39 21 -99 19
-141 -5z"/>
<path d="M4548 3966 c-36 -15 -67 -45 -86 -81 -13 -26 -15 -126 -14 -830 0
-440 1 -807 1 -815 1 -13 25 -15 156 -15 l155 0 1 50 c1 109 1 291 -1 300 -1
6 -1 15 0 20 2 12 2 207 -1 221 -1 5 0 14 1 19 2 13 2 367 0 380 -1 6 -1 15 0
20 1 6 2 54 1 108 l-1 97 47 -48 c41 -42 217 -224 501 -521 40 -42 112 -117
160 -167 48 -50 166 -173 262 -273 96 -101 188 -192 203 -203 67 -48 170 -25
212 46 l25 43 0 816 c0 450 -3 817 -7 818 -34 5 -296 3 -299 -2 -3 -5 -5 -679
-2 -779 2 -102 -5 -420 -10 -420 -3 0 -31 26 -60 58 -50 52 -303 316 -462 482
-36 37 -110 115 -165 172 -377 394 -453 472 -477 489 -32 24 -103 31 -140 15z"/>
<path d="M389 3948 c-74 -12 -91 -17 -144 -42 -95 -47 -176 -149 -210 -268
-14 -50 -16 -119 -13 -580 l3 -523 32 -65 c37 -73 59 -100 123 -150 57 -44
102 -66 165 -81 58 -13 1231 -20 1279 -7 16 4 44 18 63 30 56 39 60 65 58 488
-1 421 -2 428 -74 472 l-36 23 -517 1 -518 1 -1 -31 c-1 -36 -1 -243 0 -268 1
-16 29 -17 369 -17 202 0 388 0 415 -1 l47 0 0 -189 c0 -125 -4 -192 -11 -196
-6 -4 -230 -7 -498 -7 -537 1 -545 1 -575 60 -21 42 -24 923 -3 974 17 41 37
58 74 63 15 2 317 4 671 4 l643 1 -3 157 -3 157 -646 1 c-355 0 -666 -3 -690
-7z"/>
<path d="M20 1025 l0 -1024 3075 0 3075 0 0 1024 0 1025 -78 0 -78 0 1 -943 0
-943 -2917 -1 c-2649 0 -2917 2 -2920 16 -2 9 -4 433 -3 944 l0 927 -77 0 -78
0 0 -1025z"/>
</g>
</svg>
